<svg width="98" height="26" viewBox="0 0 98 26" fill="none" xmlns="http://www.w3.org/2000/svg">
<g id="Loft Logo Mark 1">
<g id="Group">
<g id="Group_2">
<path id="Vector" d="M51.9894 6.22405C47.6176 6.15359 44.6164 9.25386 44.5455 13.0118C44.4746 17.028 47.9484 20.1753 51.9894 20.0578C56.3376 20.1753 59.3861 17.0045 59.3861 13.2466C59.3861 9.13642 56.1722 6.318 51.9894 6.22405ZM51.9894 17.3803C49.6735 17.4508 47.6885 15.5249 47.7358 13.0587C47.783 10.757 49.4845 8.85458 51.9894 8.90155C54.3762 8.94853 56.2195 10.6866 56.2195 13.1997C56.2195 15.5014 54.4707 17.4508 51.9894 17.3803Z" fill="#2697D4"/>
</g>
<path id="Vector_2" d="M6.68787 4.95575C7.20776 5.23759 7.72766 5.54292 8.24755 5.82476C10.2326 6.92865 12.2176 8.05602 14.2027 9.1599C14.2972 9.20688 14.3681 9.20688 14.4626 9.1599C15.7624 8.40832 17.0385 7.63326 18.3382 6.88168C18.3855 6.85819 18.4327 6.8347 18.48 6.78773C18.48 6.85819 18.48 6.90516 18.48 6.95214C18.48 7.60977 18.48 8.2674 18.48 8.92504C18.48 9.01898 18.4564 9.06596 18.3618 9.13642C16.9203 9.95846 15.4788 10.7805 14.0609 11.626C13.9664 11.673 13.9191 11.673 13.8246 11.626C10.7525 9.84102 7.65676 8.05602 4.56103 6.27102C4.5374 6.24753 4.49013 6.22404 4.44287 6.20056C4.49013 6.17707 4.5374 6.13009 4.58466 6.10661C5.22271 5.7543 5.83713 5.402 6.47518 5.07318C6.52245 5.0497 6.56971 5.00272 6.61697 4.97924C6.66424 4.95575 6.66424 4.95575 6.68787 4.95575Z" fill="#2697D4"/>
<path id="Vector_3" d="M4.44287 11.0389C4.93913 10.757 5.38813 10.4752 5.86076 10.1933C6.04982 10.0994 6.21524 9.98195 6.40429 9.86452C6.49882 9.81754 6.54608 9.81754 6.6406 9.86452C9.00376 11.1798 11.3669 12.4716 13.7301 13.7868C13.8955 13.8808 14.0136 13.8808 14.1791 13.7868C15.7387 12.9178 16.7785 12.3541 18.3382 11.5086C18.3855 11.4851 18.4327 11.4616 18.48 11.4381C18.48 11.4851 18.48 11.5321 18.48 11.5556C18.48 12.2367 18.4564 12.9178 18.48 13.5989C18.48 13.6929 18.4564 13.7399 18.3618 13.7868C16.7313 14.7263 15.6679 15.337 14.0609 16.2764C13.99 16.3234 13.9191 16.3234 13.8246 16.2764C10.7289 14.5384 7.65676 12.8004 4.56103 11.0858C4.5374 11.0858 4.51377 11.0623 4.44287 11.0389Z" fill="#2697D4"/>
<path id="Vector_4" d="M4.27734 15.9006C4.32461 15.8772 4.37187 15.8537 4.41913 15.8302C5.08082 15.5249 5.7425 15.2195 6.40418 14.9142C6.49871 14.8672 6.5696 14.8672 6.66413 14.9142C9.05092 16.1825 11.4377 17.4508 13.8245 18.7191C13.919 18.766 13.9899 18.766 14.0844 18.7191C15.8568 17.7326 16.5421 17.3568 18.3145 16.3704C18.3617 16.3469 18.4326 16.3234 18.4799 16.2764C18.4799 16.3234 18.4799 16.3704 18.4799 16.3939C18.4799 17.0045 18.4799 17.6622 18.4799 18.2728C18.4799 18.3668 18.4563 18.4137 18.3854 18.4607C16.5657 19.5176 15.8568 19.9404 14.0372 20.9973C13.9663 21.0443 13.919 21.0443 13.8245 20.9973C10.6815 19.3297 7.51486 17.6387 4.37187 15.9711C4.34824 15.9476 4.32461 15.9241 4.27734 15.9006Z" fill="#2697D4"/>
<path id="Vector_5" d="M39.5591 17.2159V19.8934H29.4685C29.4448 15.3605 29.4448 10.8745 29.4448 6.38846H32.5406V17.2159H39.5591Z" fill="#2697D4"/>
<path id="Vector_6" d="M75.2192 11.9314C75.2192 12.8708 75.2192 13.6929 75.2192 14.6089C72.9979 14.6089 70.8002 14.6089 68.5552 14.6089C68.5552 16.3704 68.5552 18.1554 68.5552 19.8934C67.4917 19.8934 66.4756 19.8934 65.4358 19.8934C65.4358 15.4074 65.4358 10.8979 65.4358 6.38846C68.9805 6.38846 72.5489 6.38846 76.1173 6.38846C76.1173 7.28096 76.1173 8.14998 76.1173 9.06596C73.6123 9.06596 71.1074 9.06596 68.5552 9.06596C68.5552 10.0289 68.5552 10.9684 68.5552 11.9314C70.7765 11.9314 72.9979 11.9314 75.2192 11.9314Z" fill="#2697D4"/>
<path id="Vector_7" d="M93.7228 6.38846H82.0488V9.06596H86.3261V19.8934H89.4455V9.06596H93.7228V6.38846Z" fill="#2697D4"/>
</g>
</g>
</svg>
